<mxfile host="app.diagrams.net" modified="2023-05-22T14:21:22.117Z" agent="Mozilla/5.0 (Windows NT 10.0; Win64; x64) AppleWebKit/537.36 (KHTML, like Gecko) Chrome/113.0.0.0 Safari/537.36 Edg/113.0.1774.50" version="21.3.2" etag="HcCqT-0kPo0SdbEGzTHC" type="device">
  <diagram id="AMIzO9Lenv1xZAjEitOG" name="Page-1">
    <mxGraphModel dx="2243" dy="730" grid="1" gridSize="10" guides="1" tooltips="1" connect="1" arrows="1" fold="1" page="1" pageScale="1" pageWidth="850" pageHeight="1100" math="0" shadow="0">
      <root>
        <mxCell id="0" />
        <mxCell id="1" parent="0" />
        <mxCell id="ZxEiJh7WUBDdRys-TL6c-1" value="E-Banking System" style="ellipse;whiteSpace=wrap;html=1;" vertex="1" parent="1">
          <mxGeometry x="620" y="400" width="120" height="80" as="geometry" />
        </mxCell>
        <mxCell id="ZxEiJh7WUBDdRys-TL6c-2" value="" style="endArrow=none;html=1;rounded=0;entryX=0;entryY=0.5;entryDx=0;entryDy=0;" edge="1" parent="1" target="ZxEiJh7WUBDdRys-TL6c-1">
          <mxGeometry width="50" height="50" relative="1" as="geometry">
            <mxPoint x="-290" y="440" as="sourcePoint" />
            <mxPoint x="540" y="240" as="targetPoint" />
          </mxGeometry>
        </mxCell>
        <mxCell id="ZxEiJh7WUBDdRys-TL6c-24" value="" style="endArrow=none;html=1;rounded=0;entryX=0.5;entryY=1;entryDx=0;entryDy=0;" edge="1" parent="1" target="ZxEiJh7WUBDdRys-TL6c-25">
          <mxGeometry width="50" height="50" relative="1" as="geometry">
            <mxPoint x="590" y="440" as="sourcePoint" />
            <mxPoint x="420" y="140" as="targetPoint" />
          </mxGeometry>
        </mxCell>
        <mxCell id="ZxEiJh7WUBDdRys-TL6c-25" value="Account management&amp;nbsp;" style="rounded=0;whiteSpace=wrap;html=1;" vertex="1" parent="1">
          <mxGeometry x="380" y="90.00000000000011" width="120" height="60" as="geometry" />
        </mxCell>
        <mxCell id="ZxEiJh7WUBDdRys-TL6c-26" value="" style="endArrow=none;html=1;rounded=0;" edge="1" parent="1">
          <mxGeometry width="50" height="50" relative="1" as="geometry">
            <mxPoint x="470" y="210" as="sourcePoint" />
            <mxPoint x="540" y="180" as="targetPoint" />
          </mxGeometry>
        </mxCell>
        <mxCell id="ZxEiJh7WUBDdRys-TL6c-27" value="Forget password" style="text;html=1;strokeColor=none;fillColor=none;align=center;verticalAlign=middle;whiteSpace=wrap;rounded=0;" vertex="1" parent="1">
          <mxGeometry x="540" y="160" width="110" height="30" as="geometry" />
        </mxCell>
        <mxCell id="ZxEiJh7WUBDdRys-TL6c-28" value="" style="endArrow=none;html=1;rounded=0;" edge="1" parent="1">
          <mxGeometry width="50" height="50" relative="1" as="geometry">
            <mxPoint x="490" y="250" as="sourcePoint" />
            <mxPoint x="560" y="220" as="targetPoint" />
          </mxGeometry>
        </mxCell>
        <mxCell id="ZxEiJh7WUBDdRys-TL6c-29" value="Login" style="text;html=1;strokeColor=none;fillColor=none;align=center;verticalAlign=middle;whiteSpace=wrap;rounded=0;" vertex="1" parent="1">
          <mxGeometry x="530" y="200" width="110" height="30" as="geometry" />
        </mxCell>
        <mxCell id="ZxEiJh7WUBDdRys-TL6c-30" value="" style="endArrow=none;html=1;rounded=0;" edge="1" parent="1">
          <mxGeometry width="50" height="50" relative="1" as="geometry">
            <mxPoint x="380" y="200" as="sourcePoint" />
            <mxPoint x="450" y="170" as="targetPoint" />
          </mxGeometry>
        </mxCell>
        <mxCell id="ZxEiJh7WUBDdRys-TL6c-31" value="View account information" style="text;html=1;strokeColor=none;fillColor=none;align=center;verticalAlign=middle;whiteSpace=wrap;rounded=0;" vertex="1" parent="1">
          <mxGeometry x="280" y="180" width="110" height="30" as="geometry" />
        </mxCell>
        <mxCell id="ZxEiJh7WUBDdRys-TL6c-32" value="" style="endArrow=none;html=1;rounded=0;" edge="1" parent="1">
          <mxGeometry width="50" height="50" relative="1" as="geometry">
            <mxPoint x="435" y="310" as="sourcePoint" />
            <mxPoint x="505" y="280" as="targetPoint" />
          </mxGeometry>
        </mxCell>
        <mxCell id="ZxEiJh7WUBDdRys-TL6c-33" value="Register" style="text;html=1;strokeColor=none;fillColor=none;align=center;verticalAlign=middle;whiteSpace=wrap;rounded=0;" vertex="1" parent="1">
          <mxGeometry x="350" y="300" width="110" height="30" as="geometry" />
        </mxCell>
        <mxCell id="ZxEiJh7WUBDdRys-TL6c-37" value="" style="endArrow=none;html=1;rounded=0;entryX=0.5;entryY=1;entryDx=0;entryDy=0;" edge="1" parent="1" target="ZxEiJh7WUBDdRys-TL6c-38">
          <mxGeometry width="50" height="50" relative="1" as="geometry">
            <mxPoint x="150" y="440" as="sourcePoint" />
            <mxPoint x="-20" y="140" as="targetPoint" />
          </mxGeometry>
        </mxCell>
        <mxCell id="ZxEiJh7WUBDdRys-TL6c-38" value="Make transaction" style="rounded=0;whiteSpace=wrap;html=1;" vertex="1" parent="1">
          <mxGeometry x="-60" y="90.00000000000011" width="120" height="60" as="geometry" />
        </mxCell>
        <mxCell id="ZxEiJh7WUBDdRys-TL6c-39" value="" style="endArrow=none;html=1;rounded=0;" edge="1" parent="1">
          <mxGeometry width="50" height="50" relative="1" as="geometry">
            <mxPoint x="30" y="210" as="sourcePoint" />
            <mxPoint x="100" y="180" as="targetPoint" />
          </mxGeometry>
        </mxCell>
        <mxCell id="ZxEiJh7WUBDdRys-TL6c-40" value="Transfer money&amp;nbsp;" style="text;html=1;strokeColor=none;fillColor=none;align=center;verticalAlign=middle;whiteSpace=wrap;rounded=0;" vertex="1" parent="1">
          <mxGeometry x="100" y="160" width="110" height="30" as="geometry" />
        </mxCell>
        <mxCell id="ZxEiJh7WUBDdRys-TL6c-41" value="" style="endArrow=none;html=1;rounded=0;" edge="1" parent="1">
          <mxGeometry width="50" height="50" relative="1" as="geometry">
            <mxPoint x="50" y="250" as="sourcePoint" />
            <mxPoint x="120" y="220" as="targetPoint" />
          </mxGeometry>
        </mxCell>
        <mxCell id="ZxEiJh7WUBDdRys-TL6c-42" value="Pay bill" style="text;html=1;strokeColor=none;fillColor=none;align=center;verticalAlign=middle;whiteSpace=wrap;rounded=0;" vertex="1" parent="1">
          <mxGeometry x="100" y="200" width="110" height="30" as="geometry" />
        </mxCell>
        <mxCell id="ZxEiJh7WUBDdRys-TL6c-43" value="" style="endArrow=none;html=1;rounded=0;" edge="1" parent="1">
          <mxGeometry width="50" height="50" relative="1" as="geometry">
            <mxPoint x="-60" y="200" as="sourcePoint" />
            <mxPoint x="10" y="170" as="targetPoint" />
          </mxGeometry>
        </mxCell>
        <mxCell id="ZxEiJh7WUBDdRys-TL6c-44" value="View transaction history" style="text;html=1;strokeColor=none;fillColor=none;align=center;verticalAlign=middle;whiteSpace=wrap;rounded=0;" vertex="1" parent="1">
          <mxGeometry x="-170" y="180" width="110" height="30" as="geometry" />
        </mxCell>
        <mxCell id="ZxEiJh7WUBDdRys-TL6c-45" value="" style="endArrow=none;html=1;rounded=0;" edge="1" parent="1">
          <mxGeometry width="50" height="50" relative="1" as="geometry">
            <mxPoint x="-5" y="310" as="sourcePoint" />
            <mxPoint x="65" y="280" as="targetPoint" />
          </mxGeometry>
        </mxCell>
        <mxCell id="ZxEiJh7WUBDdRys-TL6c-46" value="Request bank saving" style="text;html=1;strokeColor=none;fillColor=none;align=center;verticalAlign=middle;whiteSpace=wrap;rounded=0;" vertex="1" parent="1">
          <mxGeometry x="-115" y="300" width="110" height="30" as="geometry" />
        </mxCell>
        <mxCell id="ZxEiJh7WUBDdRys-TL6c-47" value="" style="endArrow=none;html=1;rounded=0;" edge="1" parent="1">
          <mxGeometry width="50" height="50" relative="1" as="geometry">
            <mxPoint x="470" y="370" as="sourcePoint" />
            <mxPoint x="540" y="340" as="targetPoint" />
          </mxGeometry>
        </mxCell>
        <mxCell id="ZxEiJh7WUBDdRys-TL6c-48" value="Change password/pin" style="text;html=1;strokeColor=none;fillColor=none;align=center;verticalAlign=middle;whiteSpace=wrap;rounded=0;" vertex="1" parent="1">
          <mxGeometry x="370" y="360" width="110" height="30" as="geometry" />
        </mxCell>
        <mxCell id="ZxEiJh7WUBDdRys-TL6c-49" value="" style="endArrow=none;html=1;rounded=0;" edge="1" parent="1">
          <mxGeometry width="50" height="50" relative="1" as="geometry">
            <mxPoint x="520" y="440" as="sourcePoint" />
            <mxPoint x="370" y="730" as="targetPoint" />
          </mxGeometry>
        </mxCell>
        <mxCell id="ZxEiJh7WUBDdRys-TL6c-50" value="" style="endArrow=none;html=1;rounded=0;" edge="1" parent="1">
          <mxGeometry width="50" height="50" relative="1" as="geometry">
            <mxPoint x="400" y="490" as="sourcePoint" />
            <mxPoint x="480" y="520" as="targetPoint" />
          </mxGeometry>
        </mxCell>
        <mxCell id="ZxEiJh7WUBDdRys-TL6c-51" value="Customer management" style="rounded=0;whiteSpace=wrap;html=1;" vertex="1" parent="1">
          <mxGeometry x="310" y="730.0000000000001" width="120" height="60" as="geometry" />
        </mxCell>
        <mxCell id="ZxEiJh7WUBDdRys-TL6c-52" value="View customer&#39;s bank saving" style="text;html=1;strokeColor=none;fillColor=none;align=center;verticalAlign=middle;whiteSpace=wrap;rounded=0;" vertex="1" parent="1">
          <mxGeometry x="280" y="470" width="110" height="30" as="geometry" />
        </mxCell>
        <mxCell id="ZxEiJh7WUBDdRys-TL6c-53" value="View customer&#39;s bank saving" style="text;html=1;strokeColor=none;fillColor=none;align=center;verticalAlign=middle;whiteSpace=wrap;rounded=0;" vertex="1" parent="1">
          <mxGeometry x="30" y="590" width="110" height="30" as="geometry" />
        </mxCell>
        <mxCell id="ZxEiJh7WUBDdRys-TL6c-54" value="" style="endArrow=none;html=1;rounded=0;" edge="1" parent="1">
          <mxGeometry width="50" height="50" relative="1" as="geometry">
            <mxPoint x="140" y="610" as="sourcePoint" />
            <mxPoint x="420" y="630" as="targetPoint" />
          </mxGeometry>
        </mxCell>
        <mxCell id="ZxEiJh7WUBDdRys-TL6c-55" value="" style="endArrow=none;html=1;rounded=0;" edge="1" parent="1">
          <mxGeometry width="50" height="50" relative="1" as="geometry">
            <mxPoint x="390" y="630" as="sourcePoint" />
            <mxPoint x="340" y="560" as="targetPoint" />
          </mxGeometry>
        </mxCell>
        <mxCell id="ZxEiJh7WUBDdRys-TL6c-56" value="Create account" style="text;html=1;strokeColor=none;fillColor=none;align=center;verticalAlign=middle;whiteSpace=wrap;rounded=0;" vertex="1" parent="1">
          <mxGeometry x="280" y="530" width="110" height="30" as="geometry" />
        </mxCell>
        <mxCell id="ZxEiJh7WUBDdRys-TL6c-57" value="" style="endArrow=none;html=1;rounded=0;" edge="1" parent="1">
          <mxGeometry width="50" height="50" relative="1" as="geometry">
            <mxPoint x="280" y="620" as="sourcePoint" />
            <mxPoint x="240" y="560" as="targetPoint" />
          </mxGeometry>
        </mxCell>
        <mxCell id="ZxEiJh7WUBDdRys-TL6c-58" value="Edit account" style="text;html=1;strokeColor=none;fillColor=none;align=center;verticalAlign=middle;whiteSpace=wrap;rounded=0;" vertex="1" parent="1">
          <mxGeometry x="170" y="530" width="110" height="30" as="geometry" />
        </mxCell>
        <mxCell id="ZxEiJh7WUBDdRys-TL6c-59" value="" style="endArrow=none;html=1;rounded=0;" edge="1" parent="1">
          <mxGeometry width="50" height="50" relative="1" as="geometry">
            <mxPoint x="310" y="680" as="sourcePoint" />
            <mxPoint x="340" y="620" as="targetPoint" />
          </mxGeometry>
        </mxCell>
        <mxCell id="ZxEiJh7WUBDdRys-TL6c-60" value="Remove account" style="text;html=1;strokeColor=none;fillColor=none;align=center;verticalAlign=middle;whiteSpace=wrap;rounded=0;" vertex="1" parent="1">
          <mxGeometry x="250" y="680" width="110" height="30" as="geometry" />
        </mxCell>
        <mxCell id="ZxEiJh7WUBDdRys-TL6c-61" value="" style="endArrow=none;html=1;rounded=0;" edge="1" parent="1">
          <mxGeometry width="50" height="50" relative="1" as="geometry">
            <mxPoint x="160" y="680" as="sourcePoint" />
            <mxPoint x="190" y="610" as="targetPoint" />
          </mxGeometry>
        </mxCell>
        <mxCell id="ZxEiJh7WUBDdRys-TL6c-62" value="View account information" style="text;html=1;strokeColor=none;fillColor=none;align=center;verticalAlign=middle;whiteSpace=wrap;rounded=0;" vertex="1" parent="1">
          <mxGeometry x="100" y="680" width="110" height="30" as="geometry" />
        </mxCell>
        <mxCell id="ZxEiJh7WUBDdRys-TL6c-63" value="Manager operations" style="rounded=0;whiteSpace=wrap;html=1;" vertex="1" parent="1">
          <mxGeometry x="-120" y="720.0000000000001" width="120" height="60" as="geometry" />
        </mxCell>
        <mxCell id="ZxEiJh7WUBDdRys-TL6c-64" value="" style="endArrow=none;html=1;rounded=0;entryX=0.5;entryY=0;entryDx=0;entryDy=0;" edge="1" parent="1" target="ZxEiJh7WUBDdRys-TL6c-63">
          <mxGeometry width="50" height="50" relative="1" as="geometry">
            <mxPoint x="40" y="440" as="sourcePoint" />
            <mxPoint x="-110" y="730" as="targetPoint" />
          </mxGeometry>
        </mxCell>
        <mxCell id="ZxEiJh7WUBDdRys-TL6c-65" value="View VIP customers" style="endArrow=none;html=1;rounded=0;" edge="1" parent="1">
          <mxGeometry x="-1" y="-60" width="50" height="50" relative="1" as="geometry">
            <mxPoint x="-90" y="550" as="sourcePoint" />
            <mxPoint x="-10" y="580" as="targetPoint" />
            <mxPoint x="-39" y="-56" as="offset" />
          </mxGeometry>
        </mxCell>
        <mxCell id="ZxEiJh7WUBDdRys-TL6c-66" value="Process bank saving request" style="endArrow=none;html=1;rounded=0;" edge="1" parent="1">
          <mxGeometry x="-1" y="-90" width="50" height="50" relative="1" as="geometry">
            <mxPoint x="-70" y="490" as="sourcePoint" />
            <mxPoint x="10" y="520" as="targetPoint" />
            <mxPoint x="-58" y="-84" as="offset" />
          </mxGeometry>
        </mxCell>
      </root>
    </mxGraphModel>
  </diagram>
</mxfile>
